<?xml version="1.0" standalone="no"?>
<!DOCTYPE svg PUBLIC "-//W3C//DTD SVG 20010904//EN"
 "http://www.w3.org/TR/2001/REC-SVG-20010904/DTD/svg10.dtd">
<svg version="1.0" xmlns="http://www.w3.org/2000/svg"
 width="400.000000pt" height="400.000000pt" viewBox="0 0 400.000000 400.000000"
 preserveAspectRatio="xMidYMid meet">
<metadata>
Created by potrace 1.11, written by Peter Selinger 2001-2013
</metadata>
<g transform="translate(0.000000,400.000000) scale(0.100000,-0.100000)"
fill="#000000" stroke="none">
<path d="M695 3989 c-22 -4 -55 -11 -74 -14 -49 -10 -178 -66 -242 -107 -151
-97 -284 -267 -334 -428 -45 -146 -44 -107 -44 -1446 l-1 -1270 25 -90 c13
-50 35 -115 48 -146 98 -222 295 -389 542 -462 69 -20 92 -20 1365 -23 l1295
-2 95 24 c277 72 488 264 588 537 l26 73 3 1339 c3 1319 3 1340 -17 1413 -61
221 -201 401 -398 509 -73 40 -191 81 -267 93 -75 12 -2553 12 -2610 0z"/>
</g>
</svg>
